<?xml version="1.0" encoding="UTF-8" standalone="no"?>
<svg
   viewBox="0 0 16 16"
   version="1.1"
   id="svg4"
   sodipodi:docname="low.svg"
   inkscape:version="1.3.2 (091e20ef0f, 2023-11-25)"
   xmlns:inkscape="http://www.inkscape.org/namespaces/inkscape"
   xmlns:sodipodi="http://sodipodi.sourceforge.net/DTD/sodipodi-0.dtd"
   xmlns="http://www.w3.org/2000/svg"
   xmlns:svg="http://www.w3.org/2000/svg">
  <defs
     id="defs4" />
  <sodipodi:namedview
     id="namedview4"
     pagecolor="#ffffff"
     bordercolor="#000000"
     borderopacity="0.25"
     inkscape:showpageshadow="2"
     inkscape:pageopacity="0.0"
     inkscape:pagecheckerboard="0"
     inkscape:deskcolor="#d1d1d1"
     inkscape:zoom="54.75"
     inkscape:cx="7.9908676"
     inkscape:cy="8"
     inkscape:window-width="1906"
     inkscape:window-height="1016"
     inkscape:window-x="0"
     inkscape:window-y="0"
     inkscape:window-maximized="0"
     inkscape:current-layer="svg4" />
  <style
     id="current-color-scheme"
     type="text/css">
        .ColorScheme-Text {
            color:#232629;
        }
    </style>
  <g
     class="ColorScheme-Text"
     fill="currentColor"
     id="g4"
     style="fill:#e3dedb">
    <path
       d="m8 2-4 4v4l4 4h1v-12z"
       id="path1"
       style="fill:#e3dedb" />
    <path
       d="m2 6v4h1v-4z"
       id="path2"
       style="fill:#e3dedb" />
    <path
       d="m10.128906 4.615234-.3300779.988282a3 3 0 0 1 1.2011719 2.396484 3 3 0 0 1 -1.2011719 2.396484l.3281249.984375a4 4 0 0 0 1.873047-3.380859 4 4 0 0 0 -1.871094-3.384766z"
       opacity=".35"
       id="path3"
       style="fill:#e3dedb" />
    <path
       d="m9.9453125 2.332031-.1679687 1a5 5 0 0 1 3.2226562 4.667969 5 5 0 0 1 -3.2207031 4.671875l.1660156.998047a6 6 0 0 0 4.0546875-5.669922 6 6 0 0 0 -4.0546875-5.667969z"
       opacity=".35"
       id="path4"
       style="fill:#e3dedb" />
  </g>
</svg>
