<?xml version="1.0" encoding="UTF-8" standalone="no"?>
<svg
   viewBox="0 0 16 16"
   version="1.1"
   id="svg7"
   sodipodi:docname="muted.svg"
   inkscape:version="1.3.2 (091e20ef0f, 2023-11-25)"
   xmlns:inkscape="http://www.inkscape.org/namespaces/inkscape"
   xmlns:sodipodi="http://sodipodi.sourceforge.net/DTD/sodipodi-0.dtd"
   xmlns="http://www.w3.org/2000/svg"
   xmlns:svg="http://www.w3.org/2000/svg">
  <defs
     id="defs7" />
  <sodipodi:namedview
     id="namedview7"
     pagecolor="#ffffff"
     bordercolor="#000000"
     borderopacity="0.25"
     inkscape:showpageshadow="2"
     inkscape:pageopacity="0.0"
     inkscape:pagecheckerboard="0"
     inkscape:deskcolor="#d1d1d1"
     inkscape:zoom="54.75"
     inkscape:cx="7.9908676"
     inkscape:cy="8"
     inkscape:window-width="1906"
     inkscape:window-height="1016"
     inkscape:window-x="0"
     inkscape:window-y="0"
     inkscape:window-maximized="0"
     inkscape:current-layer="svg7" />
  <style
     id="current-color-scheme"
     type="text/css">
        .ColorScheme-Text {
            color:#232629;
        }
        .ColorScheme-NegativeText {
            color:#da4453;
        }
    </style>
  <g
     class="ColorScheme-Text"
     fill="currentColor"
     id="g3"
     style="fill:#e3dedb">
    <path
       d="m4 6.01563v3.98437l4 4h1v-2.984375z"
       id="path1"
       style="fill:#e3dedb" />
    <path
       d="m2 6v4h1v-4z"
       id="path2"
       style="fill:#e3dedb" />
    <path
       d="m8 2-1.990234 1.990234 2.990234 2.982422v-4.972656z"
       id="path3"
       style="fill:#e3dedb" />
  </g>
  <path
     d="m2 2.707107.707107-.707107 11.292893 11.267023-.707109.732975z"
     class="ColorScheme-NegativeText"
     fill="currentColor"
     id="path4" />
  <g
     class="ColorScheme-Text"
     fill="currentColor"
     id="g7"
     style="fill:#e3dedb">
    <path
       d="m10.271484 12.392578a5 5 0 0 1 -.492187.279297l.166015.998047a6 6 0 0 0 1.050782-.552734z"
       opacity=".35"
       id="path5"
       style="fill:#e3dedb" />
    <path
       d="m10.128906 4.615234-.330078.988282a3 3 0 0 1 1.201172 2.396484 3 3 0 0 1 -.167969.710938l.822266.822265a4 4 0 0 0 .345703-1.533203 4 4 0 0 0 -1.871094-3.384766z"
       opacity=".35"
       id="path6"
       style="fill:#e3dedb" />
    <path
       d="m9.945312 2.332031-.167968 1a5 5 0 0 1 3.222656 4.667969 5 5 0 0 1 -.607422 2.271484l.730469.730469a6 6 0 0 0 .876953-3.001953 6 6 0 0 0 -4.054688-5.667969z"
       opacity=".35"
       id="path7"
       style="fill:#e3dedb" />
  </g>
</svg>
